<?xml version="1.0" encoding="UTF-8" standalone="no"?>
<!DOCTYPE svg PUBLIC "-//W3C//DTD SVG 1.1//EN" "http://www.w3.org/Graphics/SVG/1.1/DTD/svg11.dtd">
<svg width="100%" height="100%" viewBox="0 0 365 318" version="1.1" xmlns="http://www.w3.org/2000/svg" xmlns:xlink="http://www.w3.org/1999/xlink" xml:space="preserve" xmlns:serif="http://www.serif.com/" style="fill-rule:evenodd;clip-rule:evenodd;stroke-linejoin:round;stroke-miterlimit:2;">
    <g transform="matrix(-1,0,0,1,364.624,0)">
        <path d="M241.1,101.425C239.3,102.092 237.983,103.392 237.15,105.325C236.45,107.025 236.15,109.025 236.25,111.325L235.35,115.325C234.717,118.925 232.75,123.992 229.45,130.525L225.75,131.175C223.75,131.275 221.933,130.975 220.3,130.275C218.1,129.342 215.967,127.558 213.9,124.925C212.067,122.592 209.95,119.158 207.55,114.625C219.683,111.792 230.733,106.608 240.7,99.075C240.967,99.808 241.1,100.592 241.1,101.425" style="fill:rgb(211,217,219);fill-rule:nonzero;"/>
        <path d="M252.7,108.875L257.95,122.575C260.717,128.742 264.167,134.008 268.3,138.375C265.467,139.408 262.917,140.825 260.65,142.625C261.917,140.758 262.45,139.058 262.25,137.525C261.817,134.658 260.7,131.692 258.9,128.625C257,125.358 255.167,123.558 253.4,123.225C253.667,122.225 253.7,121.208 253.5,120.175C253.333,119.308 253.033,118.592 252.6,118.025C253.267,116.258 253.5,114.292 253.3,112.125L252.7,108.875" style="fill:rgb(13,19,26);fill-rule:nonzero;"/>
        <path d="M225.75,131.175L229.45,130.525L227.8,133.725C226.8,132.992 226.117,132.142 225.75,131.175" style="fill:rgb(211,217,219);fill-rule:nonzero;"/>
        <path d="M207.55,114.625C209.95,119.158 212.067,122.592 213.9,124.925C215.967,127.558 218.1,129.342 220.3,130.275C217.433,131.275 214.917,131.925 212.75,132.225C207.583,132.925 203.433,131.792 200.3,128.825C198,126.625 195.617,122.575 193.15,116.675C198.017,116.408 202.817,115.725 207.55,114.625" style="fill:rgb(211,217,219);fill-rule:nonzero;"/>
        <path d="M215.8,91.975C214.5,93.775 211.933,95.608 208.1,97.475C204.767,99.142 201.283,100.458 197.65,101.425C200.683,96.758 206.917,88.158 216.35,75.625C216.583,76.758 216.617,79.658 216.45,84.325C216.317,88.992 216.1,91.542 215.8,91.975" style="fill:white;fill-rule:nonzero;"/>
        <path d="M156.6,76.525C156.767,84.258 157.433,91.158 158.6,97.225C156.033,93.158 154.7,90.408 154.6,88.975C154.267,83.975 154.933,79.825 156.6,76.525" style="fill:white;fill-rule:nonzero;"/>
        <path d="M246.55,94.225C251.617,94.192 258.517,95.442 267.25,97.975C274.783,100.142 283.1,103.108 292.2,106.875C297.167,108.908 302.817,111.675 309.15,115.175C312.283,116.908 313.867,118.392 313.9,119.625C313.967,121.025 311.983,122.025 307.95,122.625C300.017,123.792 291.133,123.675 281.3,122.275C285.167,123.808 289.567,126.092 294.5,129.125C299.167,131.958 302.35,134.208 304.05,135.875C305.417,137.242 306.067,138.192 306,138.725C305.867,139.592 304.15,140.008 300.85,139.975L287,138.975C291.067,141.008 295.317,143.608 299.75,146.775C304.35,150.108 308.317,153.458 311.65,156.825C314.217,159.425 315.35,161.225 315.05,162.225C314.717,163.258 312.883,163.608 309.55,163.275C304.383,162.708 299.333,161.142 294.4,158.575L289.45,153.975L288.3,150.375C287.033,146.742 284.017,143.575 279.25,140.875C274.617,138.242 270.967,137.408 268.3,138.375C264.167,134.008 260.717,128.742 257.95,122.575L252.7,108.875C252.3,107.442 251.75,106.258 251.05,105.325C249.383,102.492 247.3,101.008 244.8,100.875C243.367,100.842 242.133,101.025 241.1,101.425C241.1,100.592 240.967,99.808 240.7,99.075L246.55,94.225" style="fill:rgb(149,94,12);fill-rule:nonzero;"/>
        <path d="M172.45,19.825C168.383,21.192 165.2,25.025 162.9,31.325C160.733,37.258 159.083,44.325 157.95,52.525C156.883,60.392 156.433,68.392 156.6,76.525C154.933,79.825 154.267,83.975 154.6,88.975C154.7,90.408 156.033,93.158 158.6,97.225C159.2,100.192 159.833,102.708 160.5,104.775C161.333,107.275 162.417,109.592 163.75,111.725C151.65,102.758 143.883,90.575 140.45,75.175C139.15,69.342 138.5,62.958 138.5,56.025C138.533,47.058 139.7,37.658 142,27.825C143.833,20.025 146.183,12.708 149.05,5.875C150.083,3.342 150.983,2.092 151.75,2.125C152.25,2.125 152.95,2.858 153.85,4.325C158.75,12.592 164.95,17.758 172.45,19.825" style="fill:rgb(149,94,12);fill-rule:nonzero;"/>
        <path d="M292.3,14.225C295.1,12.492 296.883,11.842 297.65,12.275C298.417,12.708 298.3,14.392 297.3,17.325C294.933,24.192 290.867,32.608 285.1,42.575C279.8,51.775 273.917,60.825 267.45,69.725C258.217,82.525 250.067,91.858 243,97.725C233.2,105.792 221.383,111.425 207.55,114.625L197.5,116.125L190.5,116.725C190.633,113.692 193.017,108.592 197.65,101.425C201.283,100.458 204.767,99.142 208.1,97.475C211.933,95.608 214.5,93.775 215.8,91.975C216.1,91.542 216.317,88.992 216.45,84.325C216.617,79.658 216.583,76.758 216.35,75.625L220.65,69.925L242,41.925C249.1,33.492 254.817,28.808 259.15,27.875L270.45,24.275C279.217,21.142 286.5,17.792 292.3,14.225" style="fill:rgb(149,94,12);fill-rule:nonzero;"/>
        <path d="M239,105.925C237.867,107.158 236.95,108.958 236.25,111.325C236.15,109.025 236.45,107.025 237.15,105.325C237.983,103.392 239.3,102.092 241.1,101.425C242.133,101.025 243.367,100.842 244.8,100.875C247.3,101.008 249.383,102.492 251.05,105.325C249.35,103.192 246.983,102.492 243.95,103.225C241.85,103.725 240.2,104.625 239,105.925" style="fill:rgb(13,19,26);fill-rule:nonzero;"/>
        <path d="M267.45,69.725C270.45,71.558 273.567,74.158 276.8,77.525C280.2,81.025 282.133,83.775 282.6,85.775C279,84.708 274.55,83.908 269.25,83.375C263.617,82.842 259.45,82.892 256.75,83.525C259.883,79.825 263.45,75.225 267.45,69.725" style="fill:rgb(149,94,12);fill-rule:nonzero;"/>
        <path d="M132.5,49.225L134.05,49.425C134.617,49.725 135,50.142 135.2,50.675C136.1,52.842 137.2,54.625 138.5,56.025C138.5,62.958 139.15,69.342 140.45,75.175C137.75,70.608 135.25,67.392 132.95,65.525C132.417,65.092 130.433,63.958 127,62.125C124.867,60.992 123.517,59.708 122.95,58.275C122.417,57.008 122.433,55.425 123,53.525C123.833,54.425 124.833,55.008 126,55.275L129.65,54.925C130.55,54.625 131.267,53.942 131.8,52.875C132.367,51.808 132.6,50.592 132.5,49.225" style="fill:rgb(149,94,12);fill-rule:nonzero;"/>
        <path d="M231.75,170.225C231.417,169.125 231.733,167.042 232.7,163.975C234.033,159.642 236.433,156.392 239.9,154.225C242.233,157.458 244.417,161.075 246.45,165.075C248.583,169.275 250.017,172.892 250.75,175.925C245.617,176.725 241.017,176.175 236.95,174.275C233.917,172.875 232.183,171.525 231.75,170.225" style="fill:rgb(13,19,26);fill-rule:nonzero;"/>
        <path d="M130.25,44.275C131.65,45.775 132.4,47.425 132.5,49.225C132.6,50.592 132.367,51.808 131.8,52.875C131.267,53.942 130.55,54.625 129.65,54.925L126,55.275C124.833,55.008 123.833,54.425 123,53.525C122.033,52.458 121.383,51.008 121.05,49.175C120.35,45.408 119,41.125 117,36.325C114.367,30.158 111.567,25.808 108.6,23.275C106.433,25.842 104.217,29.342 101.95,33.775C100.35,36.942 99.183,38.475 98.45,38.375C89.283,37.308 81,37.258 73.6,38.225C65.6,39.292 58,41.625 50.8,45.225C41.533,49.892 32.4,57.242 23.4,67.275C16.367,75.108 10.8,82.842 6.7,90.475C4.4,94.842 2.917,96.958 2.25,96.825C1.55,96.692 1.583,93.992 2.35,88.725C5.283,68.092 13.617,50.375 27.35,35.575C37.983,24.075 49.65,16.158 62.35,11.825C70.25,9.125 78.65,7.592 87.55,7.225L106.1,6.075C110.3,5.208 113.017,4.842 114.25,4.975C116.95,5.275 118.417,6.992 118.65,10.125C119.183,17.858 120.233,24.225 121.8,29.225C123.667,35.158 126.483,40.175 130.25,44.275" style="fill:rgb(211,217,219);fill-rule:nonzero;"/>
        <path d="M117.7,274.225C118.733,271.358 119.95,269.108 121.35,267.475L123.35,272.475C120.917,272.842 119.033,273.425 117.7,274.225" style="fill:rgb(211,217,219);fill-rule:nonzero;"/>
        <path d="M241.75,146.225C239.917,145.292 238.067,143.892 236.2,142.025L239.6,135.225C240.833,132.758 241.9,130.842 242.8,129.475C245.367,129.342 247.767,128.625 250,127.325C252.267,126.025 253.4,124.658 253.4,123.225C255.167,123.558 257,125.358 258.9,128.625C260.7,131.692 261.817,134.658 262.25,137.525C262.45,139.058 261.917,140.758 260.65,142.625C259.483,143.558 258.383,144.675 257.35,145.975C255.917,146.975 254.45,147.592 252.95,147.825C251.883,147.992 250.133,147.742 247.7,147.075C245.167,146.375 243.183,146.092 241.75,146.225" style="fill:rgb(211,217,219);fill-rule:nonzero;"/>
        <path d="M236.2,142.025C238.067,143.892 239.917,145.292 241.75,146.225L237.7,147.425L233.2,147.725L236.2,142.025" style="fill:rgb(211,217,219);fill-rule:nonzero;"/>
        <path d="M144.5,263.225C144.933,264.525 144.933,266.058 144.5,267.825C144.1,269.325 143.517,270.642 142.75,271.775C140.917,272.442 138.95,273.225 136.85,274.125C134.917,273.192 132.65,272.592 130.05,272.325L129.45,263.175L136.65,263.625L144.5,263.225" style="fill:rgb(211,217,219);fill-rule:nonzero;"/>
        <path d="M252.6,118.025C253.033,118.592 253.333,119.308 253.5,120.175C253.7,121.208 253.667,122.225 253.4,123.225C253,124.625 252.033,125.892 250.5,127.025C248.467,128.492 245.9,129.308 242.8,129.475C243.733,128.008 244.633,126.925 245.5,126.225L249.95,122.225C251.183,120.858 252.067,119.458 252.6,118.025" style="fill:rgb(211,217,219);fill-rule:nonzero;"/>
        <path d="M233.2,147.725C234.467,148.158 236,148.025 237.8,147.325C237.033,149.158 237.467,151.108 239.1,153.175L239.9,154.225C236.433,156.392 234.033,159.642 232.7,163.975C231.733,167.042 231.417,169.125 231.75,170.225C232.183,171.525 233.917,172.875 236.95,174.275C241.017,176.175 245.617,176.725 250.75,175.925L251.45,179.575C249.917,180.308 248.5,180.558 247.2,180.325L242.55,179.825C239.383,180.025 233.333,182.242 224.4,186.475C214.467,191.208 205.733,194.325 198.2,195.825L188.8,195.475C185.033,194.475 182.367,192.658 180.8,190.025C179.8,188.358 179.317,186.408 179.35,184.175C179.517,179.442 182.583,173.942 188.55,167.675C194.583,161.308 201.033,156.892 207.9,154.425L216.7,156.775C219.3,157.475 221.117,157.658 222.15,157.325C224.117,156.758 225.267,155.658 225.6,154.025C226.567,154.058 227.533,153.825 228.5,153.325C229.567,152.758 230.467,151.942 231.2,150.875L233.2,147.725" style="fill:rgb(149,94,12);fill-rule:nonzero;"/>
        <path d="M180.55,195.825L181.6,197.175C182.6,198.042 184.25,198.458 186.55,198.425C188.783,198.392 190.883,197.925 192.85,197.025C194.283,198.792 195.283,201.025 195.85,203.725L193.35,208.575C191.15,212.608 189.3,216.275 187.8,219.575C182.533,231.375 180.3,241.625 181.1,250.325C181.6,256.092 180.55,259.708 177.95,261.175C177.283,261.575 176.567,261.792 175.8,261.825C174.967,261.858 173.267,261.342 170.7,260.275C167.367,258.875 164.833,257.942 163.1,257.475C162.367,257.242 161.8,256.942 161.4,256.575C160.5,255.742 160.367,254.525 161,252.925C161.4,251.792 162.1,250.642 163.1,249.475C166,246.042 169.183,239.408 172.65,229.575C176.383,219.008 178.2,210.625 178.1,204.425C178.033,202.025 178.067,200.442 178.2,199.675C178.5,198.075 179.283,196.792 180.55,195.825" style="fill:rgb(149,94,12);fill-rule:nonzero;"/>
        <path d="M237.8,147.325L239.5,146.775L241.75,146.225C243.183,146.092 245.167,146.375 247.7,147.075C250.133,147.742 251.883,147.992 252.95,147.825C254.45,147.592 255.917,146.975 257.35,145.975C255.783,148.075 254.933,150.242 254.8,152.475C254.567,156.042 255.017,159.792 256.15,163.725C258.117,170.625 259.3,175.058 259.7,177.025C258.533,178.558 257.417,179.692 256.35,180.425C254.217,181.858 252.767,181.942 252,180.675L250.75,175.925C250.05,172.958 248.333,168.892 245.6,163.725C243.067,158.925 240.9,155.408 239.1,153.175C237.467,151.175 237.033,149.225 237.8,147.325" style="fill:rgb(211,217,219);fill-rule:nonzero;"/>
        <path d="M335.45,287.275L336.2,289.025L336.55,291.175C334.683,289.542 333.233,288.492 332.2,288.025C330.933,287.425 329.633,287.308 328.3,287.675C326.533,288.175 325.417,289.908 324.95,292.875C324.483,295.808 324.9,297.825 326.2,298.925C322,298.858 317.767,298.925 313.5,299.125L314.55,298.275C315.583,295.875 315.533,293.525 314.4,291.225C313.4,289.158 312.183,288.092 310.75,288.025C309.617,287.992 308.55,288.358 307.55,289.125L303.85,292.725C303.317,290.358 303.3,286.958 303.8,282.525C304.3,278.092 305.1,274.525 306.2,271.825C308.167,273.592 310.583,274.408 313.45,274.275C316.417,274.142 318.683,272.975 320.25,270.775C321.15,273.542 323.733,276.875 328,280.775L335.45,287.275" style="fill:rgb(149,94,12);fill-rule:nonzero;"/>
        <path d="M256.35,180.425C257.417,179.692 258.533,178.558 259.7,177.025C260.2,179.458 260.567,181.725 260.8,183.825C259.1,183.758 257.95,183.525 257.35,183.125C256.65,182.625 256.317,181.725 256.35,180.425" style="fill:rgb(149,94,12);fill-rule:nonzero;"/>
        <path d="M148.9,281.325C150.9,280.125 151.717,277.908 151.35,274.675C150.983,271.508 150.033,269.958 148.5,270.025C147.5,270.058 145.583,270.642 142.75,271.775C143.517,270.642 144.1,269.325 144.5,267.825C144.933,266.058 144.933,264.525 144.5,263.225C148.667,262.425 154.3,260.208 161.4,256.575C161.8,256.942 162.367,257.242 163.1,257.475C164.833,257.942 167.367,258.875 170.7,260.275C173.267,261.342 174.967,261.858 175.8,261.825C176.567,261.792 177.283,261.575 177.95,261.175C178.317,262.342 179.2,264.192 180.6,266.725C181.6,269.058 181.65,270.992 180.75,272.525C179.617,274.392 175.717,275.842 169.05,276.875C159.817,278.275 153.1,279.758 148.9,281.325" style="fill:rgb(149,94,12);fill-rule:nonzero;"/>
        <path d="M259.45,143.425C261.783,141.325 264.733,139.642 268.3,138.375C270.967,137.408 274.617,138.242 279.25,140.875C284.017,143.575 287.033,146.742 288.3,150.375L289.45,153.975C290.817,158.475 291.967,163.558 292.9,169.225L295.15,184.375C295.883,189.242 296.25,193.092 296.25,195.925C296.25,198.225 295.983,200.275 295.45,202.075C294.85,204.042 294.017,205.358 292.95,206.025C292.617,203.992 291.717,202.158 290.25,200.525C288.05,198.092 285.283,197.475 281.95,198.675C277.35,200.342 276.25,204.542 278.65,211.275C273.55,210.775 269.433,208.592 266.3,204.725C263.533,201.358 262,197.408 261.7,192.875C261.467,189.508 261.167,186.492 260.8,183.825C260.567,181.725 260.2,179.458 259.7,177.025C259.3,175.058 258.117,170.625 256.15,163.725C255.017,159.792 254.567,156.042 254.8,152.475C255,149.075 256.55,146.058 259.45,143.425" style="fill:rgb(149,94,12);fill-rule:nonzero;"/>
        <path d="M242.8,129.475C242,130.708 239.883,134.558 236.45,141.025L231.2,150.875C230.467,151.942 229.567,152.758 228.5,153.325C227.533,153.825 226.567,154.058 225.6,154.025C225.933,152.492 225.533,151.008 224.4,149.575C223.267,148.142 221.917,147.458 220.35,147.525C220.283,146.592 220.433,145.608 220.8,144.575C221.233,143.408 221.867,142.408 222.7,141.575C224.3,139.975 226.567,136.258 229.5,130.425C232.733,124.058 234.683,119.025 235.35,115.325L236.25,111.325C236.95,108.958 237.867,107.158 239,105.925C240.2,104.625 241.85,103.725 243.95,103.225C246.983,102.492 249.35,103.192 251.05,105.325C252.083,107.158 252.783,109.108 253.15,111.175C253.55,113.675 253.367,115.958 252.6,118.025C252.067,119.458 251.183,120.858 249.95,122.225L245.5,126.225C244.633,126.925 243.733,128.008 242.8,129.475" style="fill:rgb(149,94,12);fill-rule:nonzero;"/>
        <path d="M225.75,131.175C226.117,132.142 226.8,132.992 227.8,133.725C225.867,137.325 224.3,139.792 223.1,141.125C221.133,140.558 219.2,139.442 217.3,137.775C215.5,136.208 213.983,134.358 212.75,132.225C214.917,131.925 217.433,131.275 220.3,130.275C221.933,130.975 223.75,131.275 225.75,131.175" style="fill:rgb(211,217,219);fill-rule:nonzero;"/>
        <path d="M310.6,233.125C315.333,238.692 318.467,243.425 320,247.325C322.1,252.525 322.733,258.842 321.9,266.275C321.7,268.008 321.15,269.508 320.25,270.775C318.683,272.975 316.417,274.142 313.45,274.275C310.583,274.408 308.167,273.592 306.2,271.825C305.333,271.025 304.717,270.142 304.35,269.175C304.017,268.408 303.8,267.142 303.7,265.375L303.25,259.725C302.617,253.925 300.85,248.192 297.95,242.525C294.783,236.425 292.1,231.842 289.9,228.775C286.933,224.608 283.533,221.142 279.7,218.375C279.033,217.908 278.533,216.642 278.2,214.575C277.833,212.508 277.867,210.975 278.3,209.975C279.233,211.508 280.617,212.658 282.45,213.425C284.55,214.258 286.567,214.242 288.5,213.375C290,212.708 291.1,211.608 291.8,210.075C292.433,208.675 292.65,207.092 292.45,205.325C293.117,205.558 293.983,206.125 295.05,207.025C296.083,207.892 296.617,208.492 296.65,208.825C296.983,211.558 298.333,215.008 300.7,219.175C303.2,223.642 306.5,228.292 310.6,233.125" style="fill:rgb(149,94,12);fill-rule:nonzero;"/>
        <path d="M361.15,243.625C362.783,246.892 363.2,248.742 362.4,249.175C361.6,249.608 359.7,248.458 356.7,245.725C332.4,223.892 312.25,207.292 296.25,195.925C296.25,193.092 295.883,189.242 295.15,184.375L292.9,169.225C291.967,163.558 290.817,158.475 289.45,153.975L294.4,158.575C325.2,187.508 347.45,215.858 361.15,243.625" style="fill:rgb(149,94,12);fill-rule:nonzero;"/>
        <path d="M244.4,22.525C253.233,22.592 258.15,24.375 259.15,27.875C254.617,28.875 248.85,33.592 241.85,42.025C240.883,43.158 233.817,52.458 220.65,69.925C208.55,85.925 200.883,96.425 197.65,101.425C193.017,108.592 190.633,113.692 190.5,116.725L190.45,116.825C187.217,121.125 182.833,122.725 177.3,121.625C171.833,120.558 167.317,117.258 163.75,111.725C161.517,108.258 159.783,103.375 158.55,97.075C157.383,91.075 156.733,84.225 156.6,76.525C156.433,68.392 156.883,60.392 157.95,52.525C159.083,44.325 160.733,37.258 162.9,31.325C165.2,25.025 168.383,21.192 172.45,19.825C175.083,18.925 178.617,18.992 183.05,20.025L201,23.625C209.4,24.825 217.25,25.008 224.55,24.175L244.4,22.525" style="fill:rgb(149,94,12);fill-rule:nonzero;"/>
        <path d="M292.15,203.675C292.683,205.642 292.767,207.392 292.4,208.925C291.9,210.958 290.6,212.442 288.5,213.375C285.9,214.542 283.433,214.342 281.1,212.775C279.433,211.675 278.333,210.425 277.8,209.025C277.067,207.125 277.033,205.175 277.7,203.175C278.4,200.975 279.817,199.475 281.95,198.675C284.517,197.742 286.817,197.942 288.85,199.275C290.517,200.342 291.617,201.808 292.15,203.675" style="fill:rgb(149,94,12);fill-rule:nonzero;"/>
        <path d="M310.75,288.025C312.183,288.092 313.4,289.158 314.4,291.225C315.533,293.525 315.583,295.875 314.55,298.275L313.5,299.125C310.167,301.558 307.7,303.542 306.1,305.075C302.567,308.475 300.317,311.792 299.35,315.025C297.917,312.525 297.2,309.375 297.2,305.575C297.167,301.342 298.15,298.275 300.15,296.375L305.1,291.625C307.833,289.192 309.717,287.992 310.75,288.025" style="fill:rgb(211,217,219);fill-rule:nonzero;"/>
        <path d="M324.95,292.925C325.45,290.025 326.567,288.275 328.3,287.675C330.133,287.042 332.667,287.958 335.9,290.425C337.6,291.725 339.567,293.442 341.8,295.575C344.2,297.542 345.5,300.842 345.7,305.475C345.867,309.875 345.1,312.742 343.4,314.075C343,312.608 342.1,310.892 340.7,308.925C339.333,306.992 337.95,305.458 336.55,304.325C335.483,303.425 333.45,302.275 330.45,300.875L326.2,298.925C324.9,297.825 324.483,295.825 324.95,292.925" style="fill:rgb(211,217,219);fill-rule:nonzero;"/>
        <path d="M130.5,279.375C132.233,276.908 133.967,275.308 135.7,274.575L141.8,272.275C145.833,270.808 148.067,270.058 148.5,270.025C150.033,269.958 150.983,271.508 151.35,274.675C151.717,277.908 150.9,280.125 148.9,281.325L148.85,281.375C145.85,282.042 143,282.842 140.3,283.775C135.033,285.608 130.883,288.508 127.85,292.475C126.783,288.842 127.3,285.058 129.4,281.125C130.067,281.425 130.433,280.842 130.5,279.375" style="fill:rgb(211,217,219);fill-rule:nonzero;"/>
        <path d="M214.05,148.325L220.35,147.525C221.917,147.458 223.267,148.142 224.4,149.575C225.533,151.008 225.933,152.492 225.6,154.025C225.267,155.658 224.117,156.758 222.15,157.325C221.117,157.658 219.3,157.475 216.7,156.775L207.9,154.425C202.667,153.258 197.4,152.808 192.1,153.075L187.95,153.575C186.483,153.608 185.183,153.025 184.05,151.825L179.5,146.775C177.667,144.975 176.417,144.425 175.75,145.125C172.817,148.292 171.183,151.675 170.85,155.275C170.717,156.708 170.783,158.575 171.05,160.875L171.8,166.375C172.067,169.008 171.95,170.592 171.45,171.125L166.85,174.075C162.95,176.708 158.183,181.208 152.55,187.575C145.85,195.142 141.233,201.925 138.7,207.925C131.867,224.225 128.783,242.642 129.45,263.175L130.05,271.875L130.5,279.375C130.433,280.842 130.067,281.425 129.4,281.125C128.3,280.658 126.8,278.692 124.9,275.225C123.3,272.292 122.117,269.708 121.35,267.475C118.983,260.575 117.25,252.375 116.15,242.875C114.883,232.075 114.7,221.625 115.6,211.525C116.367,203.058 118.983,193.375 123.45,182.475C127.383,172.908 131.167,165.875 134.8,161.375C139.833,155.108 145.833,150.125 152.8,146.425L160.4,142.475C163.067,140.908 165.283,139.208 167.05,137.375C170.317,133.942 172.9,131.908 174.8,131.275C176.9,130.575 178.833,131.308 180.6,133.475C183.033,136.508 186.033,139.258 189.6,141.725C193.533,144.525 197.267,146.308 200.8,147.075C205.6,148.175 210.017,148.592 214.05,148.325" style="fill:rgb(211,217,219);fill-rule:nonzero;"/>
        <path d="M180.3,190.775C182.133,192.875 186.25,194.875 192.65,196.775C191.517,197.608 189.8,198.158 187.5,198.425C184.9,198.725 182.933,198.392 181.6,197.425C180.6,196.725 180.033,195.758 179.9,194.525C179.767,193.558 179.9,192.308 180.3,190.775" style="fill:rgb(149,94,12);fill-rule:nonzero;"/>
        <path d="M241.1,101.425C238.533,102.392 236.983,104.575 236.45,107.975C230.05,114.708 221.667,119.108 211.3,121.175C210,119.108 208.75,116.925 207.55,114.625C219.683,111.792 230.733,106.608 240.7,99.075C240.967,99.808 241.1,100.592 241.1,101.425" style="fill:rgb(173,178,180);fill-rule:nonzero;"/>
        <path d="M207.55,114.625C208.75,116.925 210,119.108 211.3,121.175C206.267,122.208 201.1,122.625 195.8,122.425C195.067,121.058 194.183,119.142 193.15,116.675C198.017,116.408 202.817,115.725 207.55,114.625" style="fill:rgb(173,178,180);fill-rule:nonzero;"/>
        <path d="M156.6,76.525C156.767,84.258 157.433,91.158 158.6,97.225C156.033,93.158 154.7,90.408 154.6,88.975C154.267,83.975 154.933,79.825 156.6,76.525" style="fill:white;fill-rule:nonzero;"/>
        <path d="M246.55,94.225C248.783,94.225 251.733,94.692 255.4,95.625C258.7,96.458 260.983,96.775 262.25,96.575C264.183,103.842 268.883,109.958 276.35,114.925C281.817,118.592 288.383,121.408 296.05,123.375L281.15,122.475C281.75,126.775 284.283,130.558 288.75,133.825L299.75,140.175L287,138.975C287.533,141.908 289.733,145.908 293.6,150.975C296.833,155.208 300.233,158.958 303.8,162.225C300.667,161.392 297.533,160.175 294.4,158.575L289.45,153.975C289.117,149.908 286.467,146.075 281.5,142.475C276.6,138.908 272.2,137.542 268.3,138.375C264.167,134.008 260.717,128.742 257.95,122.575L252.7,108.875C252.1,106.675 251.35,104.992 250.45,103.825C249.05,101.958 247.167,100.975 244.8,100.875C243.367,100.842 242.133,101.025 241.1,101.425C241.1,100.592 240.967,99.808 240.7,99.075L246.55,94.225" style="fill:rgb(118,72,0);fill-rule:nonzero;"/>
        <path d="M275.5,76.225C273.467,78.092 270.933,79.358 267.9,80.025L259.1,80.675L267.45,69.725C269.983,71.258 272.667,73.425 275.5,76.225" style="fill:rgb(118,72,0);fill-rule:nonzero;"/>
        <path d="M117.7,274.225C118.633,271.625 119.283,269.975 119.65,269.275L121.55,268.575L123.35,272.475C120.917,272.842 119.033,273.425 117.7,274.225" style="fill:rgb(173,178,180);fill-rule:nonzero;"/>
        <path d="M260.65,142.625L258.1,145.075C256.933,138.275 254.933,131.825 252.1,125.725C252.967,124.858 253.4,124.025 253.4,123.225C255.167,123.558 257,125.358 258.9,128.625C260.7,131.692 261.817,134.658 262.25,137.525C262.45,139.058 261.917,140.758 260.65,142.625" style="fill:rgb(173,178,180);fill-rule:nonzero;"/>
        <path d="M129.8,268.675L136.85,269.025L143.95,269.475L142.75,271.775C140.917,272.442 138.95,273.225 136.85,274.125C134.917,273.192 132.65,272.592 130.05,272.325L129.8,268.675" style="fill:rgb(173,178,180);fill-rule:nonzero;"/>
        <path d="M253.4,123.225L252.05,125.625L250.2,121.925C251.3,120.625 252.1,119.325 252.6,118.025C253.033,118.592 253.333,119.308 253.5,120.175C253.7,121.208 253.667,122.225 253.4,123.225" style="fill:rgb(173,178,180);fill-rule:nonzero;"/>
        <path d="M233.2,147.725C234.467,148.158 236,148.025 237.8,147.325C237.033,149.158 237.467,151.108 239.1,153.175L239.9,154.225C236.433,156.392 234.033,159.642 232.7,163.975C231.733,167.042 231.417,169.125 231.75,170.225C232.183,171.525 233.917,172.875 236.95,174.275C241.017,176.175 245.617,176.725 250.75,175.925L251.45,179.575C249.917,180.308 248.5,180.558 247.2,180.325L242.55,179.825C239.383,180.025 233.333,182.242 224.4,186.475C214.467,191.208 205.733,194.325 198.2,195.825C195.833,196.325 193.3,196.342 190.6,195.875C187.533,195.342 185.033,194.275 183.1,192.675C197.9,188.975 208.383,184.608 214.55,179.575C221.65,173.808 225.933,165.192 227.4,153.725C228.933,153.292 230.2,152.342 231.2,150.875L233.2,147.725" style="fill:rgb(118,72,0);fill-rule:nonzero;"/>
        <path d="M255.9,162.775L257.7,168.875C258.5,171.708 259.167,174.425 259.7,177.025C258.533,178.558 257.417,179.692 256.35,180.425C254.217,181.858 252.767,181.942 252,180.675L250.75,175.925C250.45,174.692 249.967,173.225 249.3,171.525C252.133,169.325 254.333,166.408 255.9,162.775" style="fill:rgb(173,178,180);fill-rule:nonzero;"/>
        <path d="M314.75,278.375C310.55,278.708 306.933,279.908 303.9,281.975C304.4,277.708 305.167,274.325 306.2,271.825C308.167,273.592 310.583,274.408 313.45,274.275C316.417,274.142 318.683,272.975 320.25,270.775C321.083,273.275 323.267,276.225 326.8,279.625C322.567,278.492 318.55,278.075 314.75,278.375" style="fill:rgb(118,72,0);fill-rule:nonzero;"/>
        <path d="M256.35,180.425C257.417,179.692 258.533,178.558 259.7,177.025C260.2,179.458 260.567,181.725 260.8,183.825C259.1,183.758 257.95,183.525 257.35,183.125C256.65,182.625 256.317,181.725 256.35,180.425" style="fill:rgb(118,72,0);fill-rule:nonzero;"/>
        <path d="M151.4,275.725C153.4,275.092 155.967,274.575 159.1,274.175L167,273.225C173.233,272.292 177.783,270.158 180.65,266.825C181.617,269.125 181.65,271.025 180.75,272.525C179.617,274.392 175.717,275.842 169.05,276.875C159.817,278.275 153.1,279.758 148.9,281.325C150.633,280.292 151.467,278.425 151.4,275.725" style="fill:rgb(118,72,0);fill-rule:nonzero;"/>
        <path d="M262.75,198.175C270.117,196.775 276.567,193.325 282.1,187.825C287.633,182.292 291.167,175.742 292.7,168.175L295.15,184.375C295.883,189.242 296.25,193.092 296.25,195.925C296.25,198.225 295.983,200.275 295.45,202.075C294.85,204.042 294.017,205.358 292.95,206.025C292.617,203.992 291.717,202.158 290.25,200.525C288.05,198.092 285.283,197.475 281.95,198.675C277.35,200.342 276.25,204.542 278.65,211.275C274.583,210.875 271.117,209.392 268.25,206.825C265.717,204.525 263.883,201.642 262.75,198.175" style="fill:rgb(118,72,0);fill-rule:nonzero;"/>
        <path d="M242.8,129.475L241.35,131.925C242.383,126.892 242.617,122.842 242.05,119.775C241.317,115.842 239.283,113.675 235.95,113.275C236.05,110.608 236.983,108.308 238.75,106.375C240.25,104.742 241.983,103.692 243.95,103.225C246.983,102.492 249.35,103.192 251.05,105.325C252.083,107.158 252.783,109.108 253.15,111.175C253.55,113.675 253.367,115.958 252.6,118.025C252.067,119.458 251.183,120.858 249.95,122.225L245.5,126.225C244.633,126.925 243.733,128.008 242.8,129.475" style="fill:rgb(118,72,0);fill-rule:nonzero;"/>
        <path d="M290.7,154.875C295.2,157.708 304.083,169.392 317.35,189.925C330.217,209.825 338.5,224.358 342.2,233.525C331.233,223.692 322.55,216.292 316.15,211.325C313.717,209.425 307.267,204.758 296.8,197.325C296.8,195.925 295.867,188.975 294,176.475L290.7,154.875" style="fill:rgb(118,72,0);fill-rule:nonzero;"/>
        <path d="M297.4,302.425C301.3,302.325 304.733,301.458 307.7,299.825C310.933,298.058 313.317,295.542 314.85,292.275C315.517,294.342 315.417,296.342 314.55,298.275L313.5,299.125C310.167,301.558 307.7,303.542 306.1,305.075C302.567,308.475 300.317,311.792 299.35,315.025C298.483,313.525 297.867,311.625 297.5,309.325C297.1,306.892 297.067,304.592 297.4,302.425" style="fill:rgb(173,178,180);fill-rule:nonzero;"/>
        <path d="M325.3,297.625C332.1,300.358 338.4,300.742 344.2,298.775C345.4,301.342 345.9,304.308 345.7,307.675C345.467,310.942 344.7,313.075 343.4,314.075C343,312.608 342.1,310.892 340.7,308.925C339.333,306.992 337.95,305.458 336.55,304.325C335.483,303.425 333.45,302.275 330.45,300.875L326.2,298.925L325.3,297.625" style="fill:rgb(173,178,180);fill-rule:nonzero;"/>
        <path d="M127.7,285.725C133.467,281.358 141.35,277.742 151.35,274.875C151.483,276.208 151.367,277.442 151,278.575C150.6,279.808 149.9,280.725 148.9,281.325L148.85,281.375C145.85,282.042 143,282.842 140.3,283.775C135.033,285.608 130.883,288.508 127.85,292.475C127.25,290.342 127.2,288.092 127.7,285.725" style="fill:rgb(173,178,180);fill-rule:nonzero;"/>
        <path d="M216.55,80.025C214.517,81.858 211.633,85.192 207.9,90.025C204.4,94.558 201.917,98.075 200.45,100.575L197.65,101.425C200.683,96.758 206.917,88.158 216.35,75.625C216.483,76.192 216.55,77.658 216.55,80.025" style="fill:rgb(219,220,220);fill-rule:nonzero;"/>
        <path d="M167.7,150.125C167.933,152.192 167.967,153.642 167.8,154.475C162.2,155.242 156.4,157.525 150.4,161.325C144.667,164.958 139.65,169.375 135.35,174.575C136.317,172.375 137.9,169.725 140.1,166.625C142.367,163.425 144.467,160.975 146.4,159.275C149.1,156.908 152.583,154.508 156.85,152.075C159.25,150.708 162.733,148.842 167.3,146.475L167.7,150.125" style="fill:rgb(173,178,180);fill-rule:nonzero;"/>
        <path d="M105.75,19.475C100.117,17.908 93.367,16.942 85.5,16.575C76.733,16.175 69.067,16.692 62.5,18.125L69.05,15.775C72.75,14.508 75.467,13.675 77.2,13.275L94.15,12.625L108.15,13.275L107.8,16.025C107.4,17.625 106.717,18.775 105.75,19.475" style="fill:rgb(173,178,180);fill-rule:nonzero;"/>
        <path d="M292.45,205.075C293.15,205.308 294.017,205.875 295.05,206.775C296.083,207.642 296.617,208.242 296.65,208.575C297.117,212.408 299.45,217.458 303.65,223.725C296.15,219.992 289.9,219.608 284.9,222.575C283.333,221.008 281.6,219.525 279.7,218.125C279.033,217.658 278.533,216.392 278.2,214.325C277.833,212.258 277.867,210.725 278.3,209.725C279.233,211.258 280.617,212.408 282.45,213.175C284.55,214.008 286.567,213.992 288.5,213.125C290,212.492 291.1,211.408 291.8,209.875C292.433,208.442 292.65,206.842 292.45,205.075" style="fill:rgb(118,72,0);fill-rule:nonzero;"/>
        <path d="M180.45,195.925C180.75,196.492 181.1,196.942 181.5,197.275C182.533,198.108 184.183,198.508 186.45,198.475C188.717,198.442 190.833,197.992 192.8,197.125C194.333,199.058 195.317,201.275 195.75,203.775L194.15,207.025L190.25,214.425C187.483,208.092 183.383,204.092 177.95,202.425C177.917,200.925 178.033,199.742 178.3,198.875C178.7,197.675 179.417,196.692 180.45,195.925" style="fill:rgb(118,72,0);fill-rule:nonzero;"/>
        <path d="M292.45,204.425C292.883,206.258 292.883,207.875 292.45,209.275C291.85,211.108 290.583,212.458 288.65,213.325C286.05,214.492 283.583,214.308 281.25,212.775C279.617,211.675 278.517,210.425 277.95,209.025L277.95,208.925C280.383,210.258 282.9,210.542 285.5,209.775C288.2,208.975 290.517,207.192 292.45,204.425" style="fill:rgb(118,72,0);fill-rule:nonzero;"/>
        <path d="M192.8,196.725C191.9,197.425 190.467,197.942 188.5,198.275L183.05,198.075C182.717,197.042 182.55,196.192 182.55,195.525C182.517,194.658 182.75,193.792 183.25,192.925C185.417,194.192 188.6,195.458 192.8,196.725" style="fill:rgb(118,72,0);fill-rule:nonzero;"/>
        <path d="M253.2,23.575C256.233,24.442 258.033,25.875 258.6,27.875C254.1,28.875 248.35,33.592 241.35,42.025L220.15,69.925C208.05,85.925 200.383,96.425 197.15,101.425C192.517,108.492 190.117,113.592 189.95,116.725L189.95,116.825C186.283,121.692 181.667,123.458 176.1,122.125C169.367,120.492 163.883,114.192 159.65,103.225C163.783,109.125 168.967,111.958 175.2,111.725C181.067,111.492 185.817,108.758 189.45,103.525C195.25,95.225 204.317,83.208 216.65,67.475C221.85,60.875 228.667,51.408 237.1,39.075C243.867,29.775 249.233,24.608 253.2,23.575" style="fill:rgb(118,72,0);fill-rule:nonzero;"/>
        <path d="M185.95,147.675C187.517,148.742 189.167,149.342 190.9,149.475L203.9,150.625C208.067,151.125 211.45,151.775 214.05,152.575C216.817,153.442 219.35,153.858 221.65,153.825C223.75,153.758 224.9,153.242 225.1,152.275L225.35,154.275C225.05,156.475 223.5,157.642 220.7,157.775C219,157.842 215.9,157.042 211.4,155.375C206.867,153.708 203.117,152.925 200.15,153.025L190.5,153.775C187.9,154.075 186.267,154.092 185.6,153.825C184.967,153.592 183.633,152.125 181.6,149.425C179.533,146.725 178.15,145.242 177.45,144.975C177.117,144.842 176.433,145.142 175.4,145.875C174.533,146.475 173.833,147.075 173.3,147.675L175,143.725C176.667,141.225 178.65,141.092 180.95,143.325L185.95,147.675" style="fill:rgb(173,178,180);fill-rule:nonzero;"/>
        <path d="M117.9,38.825L119,41.125C119.9,42.958 120.883,44.542 121.95,45.875C125.383,50.208 128.833,51.408 132.3,49.475L131.85,52.375C131.083,54.308 129.433,55.308 126.9,55.375C125,55.408 123.567,54.708 122.6,53.275C122.267,52.742 121.783,51.525 121.15,49.625L117.9,38.825" style="fill:rgb(173,178,180);fill-rule:nonzero;"/>
        <path d="M122.6,53.925L125.7,55.125C128.133,55.625 130.217,55.075 131.95,53.475L132.55,57.375C133.517,60.375 135.4,62.908 138.2,64.975L138.95,73.525L136.7,70.275C134.933,67.942 133.367,66.392 132,65.625C129.167,64.358 127.067,63.142 125.7,61.975C123.2,59.908 122.167,57.225 122.6,53.925" style="fill:rgb(118,72,0);fill-rule:nonzero;"/>
        <path d="M192.8,111.375C198.267,111.442 204.8,110.625 212.4,108.925C223.133,106.492 233.717,102.625 244.15,97.325C241.017,100.592 236.4,103.858 230.3,107.125C218.1,113.658 204.65,116.892 189.95,116.825L190.95,114.325C191.717,112.592 192.333,111.608 192.8,111.375" style="fill:rgb(118,72,0);fill-rule:nonzero;"/>
        <path d="M150.3,98.525L145.45,89.625C148.483,94.325 151.75,98.058 155.25,100.825C157.017,102.225 158.467,103.158 159.6,103.625L162.6,110.525C158.467,108.792 154.367,104.792 150.3,98.525" style="fill:rgb(118,72,0);fill-rule:nonzero;"/>
        <path d="M205.4,89.725L210,83.475C210.833,84.475 211.217,86.192 211.15,88.625C211.083,89.992 210.833,91.142 210.4,92.075C209.9,93.075 209.25,93.625 208.45,93.725C207.683,93.792 207,93.442 206.4,92.675C205.767,91.875 205.433,90.892 205.4,89.725" style="fill:rgb(13,19,26);fill-rule:nonzero;"/>
        <path d="M257.6,26.875C256.167,24.442 251.717,23.242 244.25,23.275L226.45,24.725L224.65,24.925C217.85,25.725 210.567,25.642 202.8,24.675C198.467,24.108 192.75,23.025 185.65,21.425L182.9,20.775C178.3,19.775 174.75,19.758 172.25,20.725C168.65,22.158 165.783,25.775 163.65,31.575C159.983,41.608 157.917,53.925 157.45,68.525C156.95,83.125 158.217,95.142 161.25,104.575C162.683,108.942 164.917,112.608 167.95,115.575C170.983,118.542 174.317,120.342 177.95,120.975C180.317,121.375 182.517,121.192 184.55,120.425C186.55,119.658 188.267,118.342 189.7,116.475C190,112.975 192.817,107.158 198.15,99.025C201.75,93.492 207.683,85.258 215.95,74.325L226.2,60.675C234.767,49.108 240.35,41.825 242.95,38.825C248.317,32.625 253.2,28.642 257.6,26.875M296.55,17.075C297.417,14.508 297.55,13.142 296.95,12.975C296.483,12.808 295.083,13.458 292.75,14.925C288.183,17.725 281.783,20.675 273.55,23.775C266.983,26.275 262.283,27.825 259.45,28.425C255.917,29.225 251.217,32.942 245.35,39.575C241.65,43.775 235.783,51.292 227.75,62.125L217.45,75.825C209.383,86.492 203.683,94.308 200.35,99.275C195.183,106.942 192.317,112.492 191.75,115.925C202.683,115.592 213.417,113.008 223.95,108.175C234.483,103.275 243.683,96.625 251.55,88.225C259.217,80.058 267.667,68.792 276.9,54.425C286.6,39.292 293.15,26.842 296.55,17.075M291.85,13.325C295.25,11.225 297.483,10.508 298.55,11.175C299.617,11.842 299.533,13.975 298.3,17.575C294.767,27.775 288.267,40.458 278.8,55.625C269.633,70.358 261.183,81.842 253.45,90.075C245.217,98.908 235.65,105.742 224.75,110.575C213.883,115.442 202.517,117.942 190.65,118.075C189.117,119.875 187.35,121.275 185.35,122.275C182.817,123.508 180.267,123.908 177.7,123.475C173.833,122.842 170.133,120.692 166.6,117.025C163.167,113.458 160.683,109.308 159.15,104.575C156.083,95.108 154.833,82.825 155.4,67.725C155.967,52.758 158.117,40.158 161.85,29.925C164.183,23.592 167.333,19.625 171.3,18.025C174.1,16.892 177.917,16.875 182.75,17.975L200.1,22.075C209,23.642 217.717,23.908 226.25,22.875L246.7,20.925C253.3,20.992 257.667,22.675 259.8,25.975C273.1,22.475 283.783,18.258 291.85,13.325" style="fill:rgb(13,19,26);fill-rule:nonzero;"/>
        <path d="M163.3,14.025C166.8,16.792 170.467,18.425 174.3,18.925C174.567,18.958 174.217,19.225 173.25,19.725C172.317,20.258 171.7,20.475 171.4,20.375C163.867,18.042 157.783,12.825 153.15,4.725C152.45,3.525 151.917,2.975 151.55,3.075C151.15,3.208 150.55,4.242 149.75,6.175C144.083,19.875 140.717,34.092 139.65,48.825C137.683,76.125 145.45,96.558 162.95,110.125C163.35,110.425 163.8,111.158 164.3,112.325L164.75,113.825C146.983,101.992 137.633,84.275 136.7,60.675C136.033,43.242 139.717,24.875 147.75,5.575C148.95,2.742 150.067,1.125 151.1,0.725C152.167,0.325 153.283,1.192 154.45,3.325C156.883,7.725 159.833,11.292 163.3,14.025" style="fill:rgb(13,19,26);fill-rule:nonzero;"/>
        <path d="M267.05,71.025C266.917,70.958 267,70.692 267.3,70.225C267.567,69.758 267.8,69.575 268,69.675C271.267,71.542 274.633,74.108 278.1,77.375C281.8,80.942 283.917,83.758 284.45,85.825C284.55,86.292 284.533,86.608 284.4,86.775C284.267,86.908 283.95,86.908 283.45,86.775C279.783,85.675 274.95,84.842 268.95,84.275C263.117,83.675 259.317,83.625 257.55,84.125C257.35,84.158 257.383,83.908 257.65,83.375L258.25,82.475C260.35,82.075 263.817,82.108 268.65,82.575C273.417,83.008 277.617,83.675 281.25,84.575C280.217,82.575 278.217,80.175 275.25,77.375C272.35,74.608 269.617,72.492 267.05,71.025" style="fill:rgb(13,19,26);fill-rule:nonzero;"/>
        <path d="M206.65,115.275C206.55,115.075 206.817,114.892 207.45,114.725L208.55,114.825C211.283,120.892 214.3,125.142 217.6,127.575C221.2,130.275 225.35,130.942 230.05,129.575C230.283,129.475 230.3,129.742 230.1,130.375C229.9,130.975 229.617,131.325 229.25,131.425C223.883,132.692 219.5,131.975 216.1,129.275C213.133,126.942 209.983,122.275 206.65,115.275" style="fill:rgb(13,19,26);fill-rule:nonzero;"/>
        <path d="M219.25,129.625C219.483,129.558 219.833,129.758 220.3,130.225C220.8,130.725 220.95,131.008 220.75,131.075C212.483,134.075 206.133,134.175 201.7,131.375C198.4,129.275 195.25,124.608 192.25,117.375C192.183,117.175 192.467,117.025 193.1,116.925C193.733,116.858 194.117,116.958 194.25,117.225C196.85,123.358 199.667,127.425 202.7,129.425C206.8,132.092 212.317,132.158 219.25,129.625" style="fill:rgb(13,19,26);fill-rule:nonzero;"/>
        <path d="M238.9,107.275C237.733,108.942 236.817,111.658 236.15,115.425C235.517,118.892 233.65,123.792 230.55,130.125C227.517,136.292 225.083,140.292 223.25,142.125C222.55,142.858 222,143.725 221.6,144.725C221.267,145.592 221.1,146.425 221.1,147.225C221.1,147.425 220.733,147.558 220,147.625C219.233,147.692 218.85,147.608 218.85,147.375C218.817,146.042 219,144.875 219.4,143.875C219.833,142.842 220.567,141.808 221.6,140.775C223.867,138.608 226.417,134.625 229.25,128.825C231.983,123.192 233.667,118.642 234.3,115.175C235.067,111.008 236,108.092 237.1,106.425C238.433,104.392 240.617,103.025 243.65,102.325C246.483,101.658 248.867,102.258 250.8,104.125C252.733,105.958 253.867,108.742 254.2,112.475C254.533,115.842 253.983,118.575 252.55,120.675C251.617,122.108 249.417,124.175 245.95,126.875C244.95,127.675 243.717,129.342 242.25,131.875L238.3,139.475L235.25,146.075C234.05,148.675 233,150.625 232.1,151.925C230.733,153.958 228.567,154.975 225.6,154.975C225.4,155.008 225.333,154.725 225.4,154.125C225.5,153.558 225.633,153.275 225.8,153.275C227.7,153.208 229.283,152.258 230.55,150.425C232.05,148.258 234.167,144.375 236.9,138.775L241.05,130.825C242.55,128.258 243.867,126.525 245,125.625C247.9,123.325 249.9,121.292 251,119.525C252.267,117.425 252.767,114.975 252.5,112.175C252.2,108.942 251.317,106.625 249.85,105.225C248.417,103.825 246.517,103.408 244.15,103.975C241.817,104.542 240.067,105.642 238.9,107.275" style="fill:rgb(13,19,26);fill-rule:nonzero;"/>
        <path d="M235.65,113.225C235.05,109.158 235.533,105.942 237.1,103.575C238.733,101.108 241.3,99.942 244.8,100.075C247.467,100.175 249.667,101.442 251.4,103.875C252.667,105.642 254.033,108.675 255.5,112.975C257.167,117.875 258.883,121.992 260.65,125.325C263.283,130.392 266.383,134.575 269.95,137.875C270.117,138.042 269.75,138.225 268.85,138.425L267.25,138.525C263.65,134.725 260.633,130.375 258.2,125.475C256.8,122.675 255.217,118.675 253.45,113.475C251.983,109.208 250.833,106.392 250,105.025C248.633,102.892 246.883,101.775 244.75,101.675C242.417,101.575 240.567,102.258 239.2,103.725C237.933,105.092 237.217,106.992 237.05,109.425C237.017,109.958 236.783,110.792 236.35,111.925C235.917,113.025 235.683,113.458 235.65,113.225" style="fill:rgb(13,19,26);fill-rule:nonzero;"/>
        <path d="M224.55,131.375L225.5,131.025L226.5,130.925C226.833,131.758 227.433,132.475 228.3,133.075L228.1,134.025L227.65,134.725C225.983,133.658 224.95,132.542 224.55,131.375" style="fill:rgb(13,19,26);fill-rule:nonzero;"/>
        <path d="M212,132.775L213.15,132.575C213.983,132.642 214.45,132.775 214.55,132.975C216.017,135.875 219.05,138.375 223.65,140.475C223.817,140.575 223.7,140.808 223.3,141.175C222.867,141.575 222.6,141.742 222.5,141.675C217.4,139.542 213.9,136.575 212,132.775" style="fill:rgb(13,19,26);fill-rule:nonzero;"/>
        <path d="M235.85,142.925C235.683,142.758 235.75,142.425 236.05,141.925C236.35,141.425 236.55,141.225 236.65,141.325L239.2,143.575L242.35,145.625C242.55,145.725 242.333,145.908 241.7,146.175L240.4,146.375C238.4,145.075 236.883,143.925 235.85,142.925" style="fill:rgb(13,19,26);fill-rule:nonzero;"/>
        <path d="M253,123.125C253.4,122.492 253.683,122.192 253.85,122.225C255.883,122.692 257.967,124.675 260.1,128.175C262.033,131.408 263.2,134.392 263.6,137.125C263.8,138.225 263.55,139.492 262.85,140.925L260.3,141.675C261.233,140.175 261.617,138.825 261.45,137.625C261.05,134.725 259.883,131.725 257.95,128.625C255.983,125.392 254.25,123.842 252.75,123.975C252.55,124.008 252.633,123.725 253,123.125" style="fill:rgb(13,19,26);fill-rule:nonzero;"/>
        <path d="M232.55,148.875C232.45,148.842 232.583,148.508 232.95,147.875C233.283,147.275 233.517,146.992 233.65,147.025C234.85,147.358 236.4,147.108 238.3,146.275C239.9,145.575 241.617,145.292 243.45,145.425L248.05,146.325C250.15,146.958 251.733,147.192 252.8,147.025C254.233,146.858 255.617,146.292 256.95,145.325L256.35,147.775C255.35,148.308 254.25,148.675 253.05,148.875L250.4,148.675L247.6,147.875C244.167,146.942 241.183,147.042 238.65,148.175C236.217,149.208 234.183,149.442 232.55,148.875" style="fill:rgb(13,19,26);fill-rule:nonzero;"/>
        <path d="M241.9,130.275C241.667,130.275 241.783,130.008 242.25,129.475C242.717,128.942 243.067,128.658 243.3,128.625C245.5,128.425 247.45,127.858 249.15,126.925C250.783,126.025 251.833,125.025 252.3,123.925C253.2,121.925 253.05,120.275 251.85,118.975C251.717,118.808 251.9,118.442 252.4,117.875C252.933,117.342 253.267,117.158 253.4,117.325C253.9,117.858 254.283,118.708 254.55,119.875C254.95,121.508 254.817,123.092 254.15,124.625C253.45,126.258 251.9,127.608 249.5,128.675C247.167,129.742 244.633,130.275 241.9,130.275" style="fill:rgb(13,19,26);fill-rule:nonzero;"/>
        <path d="M240.05,99.525C239.983,99.358 240.217,99.208 240.75,99.075C241.25,98.908 241.517,98.908 241.55,99.075L241.85,100.975L241.05,101.625L240.3,101.675L240.05,99.525" style="fill:rgb(13,19,26);fill-rule:nonzero;"/>
        <path d="M263.85,119.925C263.45,118.592 263.417,117.592 263.75,116.925C264.05,116.258 264.4,116.592 264.8,117.925C265.8,121.292 267.183,124.675 268.95,128.075C270.717,131.475 272.533,134.242 274.4,136.375C274.567,136.542 274.517,136.892 274.25,137.425C273.983,137.992 273.767,138.192 273.6,138.025C271.6,135.692 269.75,132.975 268.05,129.875C266.283,126.608 264.883,123.292 263.85,119.925" style="fill:rgb(13,19,26);fill-rule:nonzero;"/>
        <path d="M245.6,94.725C245.367,94.658 245.583,94.458 246.25,94.125C246.95,93.792 247.417,93.675 247.65,93.775C251.817,95.242 255.033,97.358 257.3,100.125C259.567,102.925 261.05,106.625 261.75,111.225C261.983,112.592 261.95,113.642 261.65,114.375C261.35,115.075 261.117,114.725 260.95,113.325C260.317,108.725 258.683,104.825 256.05,101.625C253.417,98.425 249.933,96.125 245.6,94.725" style="fill:rgb(13,19,26);fill-rule:nonzero;"/>
        <path d="M245.45,95.025C245.183,95.058 245.45,94.792 246.25,94.225C247.017,93.692 247.6,93.425 248,93.425C257.1,93.758 268.45,96.425 282.05,101.425C292.717,105.358 301.833,109.475 309.4,113.775C313.767,116.242 315.917,118.392 315.85,120.225C315.783,122.125 313.267,123.442 308.3,124.175C302.167,125.075 295.4,125.158 288,124.425C281.1,123.725 273.317,122.275 264.65,120.075C264.483,120.008 264.283,119.608 264.05,118.875C263.817,118.142 263.8,117.808 264,117.875C271.8,120.042 279.517,121.475 287.15,122.175C294.817,122.875 301.717,122.758 307.85,121.825C311.183,121.358 312.967,120.758 313.2,120.025C313.5,119.158 312.033,117.775 308.8,115.875C301.7,111.675 291.65,107.242 278.65,102.575C263.583,97.175 252.517,94.658 245.45,95.025" style="fill:rgb(13,19,26);fill-rule:nonzero;"/>
        <path d="M301.9,141.325L286.45,140.025L273.8,137.925C273.567,137.858 273.483,137.525 273.55,136.925C273.617,136.358 273.767,136.092 274,136.125L286,138.075L300.85,139.175C303.45,139.208 304.85,139.025 305.05,138.625C305.183,138.358 304.667,137.625 303.5,136.425C301.7,134.658 298.317,132.292 293.35,129.325C287.95,126.092 283.333,123.792 279.5,122.425L281.35,122.375C282.85,122.442 283.883,122.608 284.45,122.875C288.45,124.675 292.6,126.842 296.9,129.375C301.133,131.908 303.983,133.908 305.45,135.375C307.45,137.408 308.317,138.875 308.05,139.775C307.683,140.842 305.633,141.358 301.9,141.325" style="fill:rgb(13,19,26);fill-rule:nonzero;"/>
        <path d="M236.3,147.875C236.4,147.308 236.783,147.142 237.45,147.375C238.117,147.608 238.4,147.925 238.3,148.325C238.1,149.725 238.567,151.175 239.7,152.675C242.567,156.408 245.233,160.775 247.7,165.775C250.333,171.142 251.75,175.375 251.95,178.475C252.117,180.242 252.95,180.892 254.45,180.425C255.983,179.958 257.683,178.458 259.55,175.925C259.75,175.625 259.933,175.875 260.1,176.675C260.233,177.475 260.15,178.092 259.85,178.525C257.817,181.325 255.8,183.025 253.8,183.625C251.567,184.292 250.35,183.142 250.15,180.175C249.883,177.075 248.533,172.725 246.1,167.125C243.633,161.525 241.083,157.025 238.45,153.625C236.717,151.392 236,149.475 236.3,147.875" style="fill:rgb(13,19,26);fill-rule:nonzero;"/>
        <path d="M239.45,153.575L240,154.175L240.3,154.925C236.933,157.025 234.633,160.158 233.4,164.325C232.767,166.392 232.467,168.275 232.5,169.975C232.833,171.008 234.383,172.192 237.15,173.525C241.05,175.358 245.483,175.908 250.45,175.175C250.583,175.142 250.717,175.475 250.85,176.175L250.95,177.175C245.583,178.042 240.767,177.375 236.5,175.175C233.367,173.575 231.533,172.008 231,170.475C230.6,169.242 230.917,166.992 231.95,163.725C233.35,159.192 235.85,155.808 239.45,153.575" style="fill:rgb(13,19,26);fill-rule:nonzero;"/>
        <path d="M268.25,137.175C270.783,136.242 274.517,136.992 279.45,139.425C284.95,142.125 288.433,145.642 289.9,149.975C291.267,153.908 292.55,159.525 293.75,166.825C295.417,176.892 296.5,183.058 297,185.325C298.2,190.725 298.55,195.192 298.05,198.725C297.55,202.158 296.233,204.825 294.1,206.725C293.967,206.892 293.633,206.775 293.1,206.375C292.567,205.975 292.383,205.708 292.55,205.575C295.85,202.608 296.467,195.592 294.4,184.525L291.6,167.725C290.333,160.492 288.983,154.808 287.55,150.675C286.283,146.975 283.25,143.858 278.45,141.325C274.083,139.025 270.8,138.275 268.6,139.075C265.167,140.308 262.267,142.058 259.9,144.325C257.2,146.892 255.767,149.625 255.6,152.525C255.433,155.025 255.567,157.392 256,159.625C256.267,161.092 256.833,163.258 257.7,166.125C258.933,170.125 259.833,173.508 260.4,176.275C261.367,181.108 262.067,186.625 262.5,192.825C262.733,196.292 263.717,199.425 265.45,202.225C268.283,206.858 272.75,209.642 278.85,210.575C279.083,210.642 279.017,210.975 278.65,211.575L277.8,212.425C272.067,211.558 267.667,209.375 264.6,205.875C261.933,202.842 260.5,199.108 260.3,194.675C260.033,188.375 259.4,182.592 258.4,177.325C257.767,174.058 256.85,170.475 255.65,166.575L253.7,159.775C253.133,157.175 252.933,154.592 253.1,152.025C253.3,148.858 255.033,145.825 258.3,142.925C261.1,140.458 264.417,138.542 268.25,137.175" style="fill:rgb(13,19,26);fill-rule:nonzero;"/>
        <path d="M256.35,179.875L257.15,179.675C257.05,180.975 257.183,181.825 257.55,182.225C257.983,182.725 259.033,182.992 260.7,183.025L260.85,183.825L260.7,184.575L258,184.525C257.133,184.458 256.5,184.225 256.1,183.825C255.733,183.392 255.55,182.275 255.55,180.475C255.55,180.308 255.817,180.108 256.35,179.875" style="fill:rgb(13,19,26);fill-rule:nonzero;"/>
        <path d="M285.6,139.175L287.2,139.025L289.85,139.425C294.017,141.692 298.117,144.275 302.15,147.175C306.483,150.275 310.1,153.308 313,156.275C316.5,159.842 317.617,162.258 316.35,163.525C315.483,164.358 313.467,164.675 310.3,164.475C305.1,164.075 300.5,162.958 296.5,161.125C296.067,160.925 295.45,160.208 294.65,158.975C293.817,157.742 293.533,157.208 293.8,157.375C299.1,160.242 304.383,161.942 309.65,162.475C312.617,162.775 314.2,162.608 314.4,161.975C314.567,161.342 313.467,159.808 311.1,157.375C307.8,154.008 303.783,150.642 299.05,147.275C294.283,143.875 289.8,141.175 285.6,139.175" style="fill:rgb(13,19,26);fill-rule:nonzero;"/>
        <path d="M357.2,245.125C359.667,247.358 361.133,248.342 361.6,248.075C362.067,247.842 361.683,246.475 360.45,243.975C346.15,215.008 322.65,185.508 289.95,155.475C289.683,155.242 289.45,154.525 289.25,153.325C289.05,152.092 289.033,151.558 289.2,151.725C306.3,167.258 320.65,182.258 332.25,196.725C344.017,211.392 353.717,226.425 361.35,241.825C363.783,246.758 364.483,249.642 363.45,250.475C362.417,251.308 359.9,249.925 355.9,246.325C330.6,223.592 310.817,207.475 296.55,197.975C296.317,197.808 296.183,197.258 296.15,196.325C296.15,195.358 296.217,194.908 296.35,194.975C312.583,206.542 332.867,223.258 357.2,245.125" style="fill:rgb(13,19,26);fill-rule:nonzero;"/>
        <path d="M288.2,212.625C289.8,211.925 290.867,210.675 291.4,208.875C291.867,207.308 291.85,205.658 291.35,203.925C291.15,203.158 290.767,202.392 290.2,201.625C289.533,200.758 288.733,200.075 287.8,199.575L282.25,199.425C280.583,200.058 279.4,201.142 278.7,202.675C278.267,203.642 278.05,204.725 278.05,205.925C278.05,206.958 278.217,207.908 278.55,208.775C278.817,209.475 279.3,210.158 280,210.825C280.767,211.592 281.667,212.192 282.7,212.625C284.6,213.425 286.433,213.425 288.2,212.625M281.7,197.925L288.7,198.125C291.1,199.158 292.667,200.942 293.4,203.475C294.067,205.708 293.933,207.842 293,209.875C292.133,211.842 290.75,213.242 288.85,214.075C287.15,214.842 285.1,214.958 282.7,214.425C279.833,213.758 277.783,212.242 276.55,209.875C275.517,207.808 275.517,205.542 276.55,203.075C277.583,200.542 279.3,198.825 281.7,197.925" style="fill:rgb(13,19,26);fill-rule:nonzero;"/>
        <path d="M292.8,206.375C292.7,206.308 292.933,205.975 293.5,205.375C294.1,204.742 294.533,204.492 294.8,204.625C297.2,205.825 298.467,206.858 298.6,207.725C300.1,215.992 304.4,224.292 311.5,232.625C316.3,238.292 319.5,243.042 321.1,246.875C323.333,252.308 324.033,258.808 323.2,266.375C322.933,268.708 322,270.658 320.4,272.225C318.833,273.725 316.883,274.642 314.55,274.975C312.117,275.342 309.7,275.058 307.3,274.125C304.8,273.125 303.15,271.692 302.35,269.825C302.117,269.258 301.967,268.425 301.9,267.325L301.75,264.125L301,255.325C300.267,251.158 298.833,247.025 296.7,242.925C293.667,236.992 291.05,232.525 288.85,229.525C285.883,225.458 282.467,222.075 278.6,219.375C277.833,218.842 277.3,217.692 277,215.925C276.733,214.425 276.667,212.825 276.8,211.125C276.833,210.725 277.2,210.525 277.9,210.525C278.633,210.525 278.983,210.608 278.95,210.775C278.817,212.142 278.85,213.525 279.05,214.925C279.283,216.425 279.65,217.358 280.15,217.725C284.117,220.592 287.617,224.158 290.65,228.425C292.817,231.492 295.483,236.075 298.65,242.175C300.85,246.508 302.417,250.775 303.35,254.975C303.883,257.475 304.233,260.492 304.4,264.025C304.533,266.492 304.75,268.108 305.05,268.875C305.717,270.442 306.95,271.658 308.75,272.525C310.517,273.392 312.383,273.692 314.35,273.425C316.25,273.158 317.8,272.375 319,271.075C320.167,269.808 320.867,268.175 321.1,266.175C321.933,258.808 321.317,252.542 319.25,247.375C317.683,243.508 314.6,238.925 310,233.625C305.233,228.125 301.483,222.458 298.75,216.625L295.9,208.925C295.667,208.225 294.633,207.375 292.8,206.375" style="fill:rgb(13,19,26);fill-rule:nonzero;"/>
        <path d="M305.6,271.175L306.35,271.525L306.9,272.225C305.867,274.725 305.117,278.025 304.65,282.125C304.15,286.192 304.1,289.442 304.5,291.875L303.55,293.125L302.45,293.775C301.75,291.542 301.783,287.908 302.55,282.875C303.283,278.108 304.3,274.208 305.6,271.175" style="fill:rgb(13,19,26);fill-rule:nonzero;"/>
        <path d="M325.95,277.375L333.2,283.725C334.867,285.125 336.05,286.325 336.75,287.325C337.783,288.892 338.15,290.458 337.85,292.025C337.817,292.225 337.467,292.025 336.8,291.425L335.75,290.275C335.617,289.308 335.217,288.425 334.55,287.625C334.117,287.092 333.15,286.192 331.65,284.925L324.85,278.775C322.25,276.108 320.533,273.692 319.7,271.525C319.567,271.225 319.717,270.842 320.15,270.375C320.583,269.908 320.817,269.758 320.85,269.925C321.383,272.025 323.083,274.508 325.95,277.375" style="fill:rgb(13,19,26);fill-rule:nonzero;"/>
        <path d="M328.75,281.425L330.15,282.575L331,283.425C329.533,282.158 325.183,281.792 317.95,282.325L308.85,282.625C307.917,282.658 306.967,283.142 306,284.075C305.2,284.842 304.5,285.808 303.9,286.975C303.767,287.208 303.633,286.925 303.5,286.125C303.367,285.325 303.417,284.742 303.65,284.375C305.317,282.208 307.067,281.192 308.9,281.325L317.2,281.025L323.75,280.725C325.917,280.725 327.583,280.958 328.75,281.425" style="fill:rgb(13,19,26);fill-rule:nonzero;"/>
        <path d="M308.15,289.625C307.617,290.025 306.6,291.008 305.1,292.575L300.7,296.975C298.867,298.708 297.95,301.558 297.95,305.525C297.95,308.292 298.4,310.792 299.3,313.025C300.533,310.192 302.683,307.325 305.75,304.425C307.417,302.825 309.65,300.992 312.45,298.925L313.9,297.825C314.267,296.825 314.45,295.858 314.45,294.925C314.45,293.458 314.067,292.108 313.3,290.875C312.433,289.508 311.567,288.825 310.7,288.825C309.8,288.792 308.95,289.058 308.15,289.625M298.25,296.975L303.55,291.675C305.15,290.042 306.367,288.925 307.2,288.325C308.333,287.558 309.517,287.192 310.75,287.225C312.95,287.292 314.483,288.758 315.35,291.625C316.117,294.225 316.067,296.508 315.2,298.475C314.933,299.042 314.2,299.775 313,300.675L309,303.625C305.033,306.892 302.05,311.108 300.05,316.275C299.65,317.342 299.167,317.408 298.6,316.475C297.333,314.242 296.5,311.092 296.1,307.025C295.6,302.158 296.317,298.808 298.25,296.975" style="fill:rgb(13,19,26);fill-rule:nonzero;"/>
        <path d="M332.35,288.975C331.05,288.275 329.767,288.092 328.5,288.425C327.8,288.625 327.183,289.208 326.65,290.175C326.117,291.142 325.783,292.292 325.65,293.625L325.55,294.725C325.55,296.725 326.017,297.975 326.95,298.475L330.5,300.175C333.6,301.508 335.783,302.675 337.05,303.675C338.25,304.675 339.483,305.992 340.75,307.625C342.05,309.358 343.033,310.975 343.7,312.475C344.467,311.108 344.883,309.125 344.95,306.525L344.95,306.375C344.95,304.375 344.683,302.508 344.15,300.775C343.517,298.742 342.567,297.225 341.3,296.225L337.05,292.675C334.817,290.708 333.25,289.475 332.35,288.975M328.1,286.925C329.733,286.492 331.333,286.675 332.9,287.475C333.967,288.042 335.7,289.375 338.1,291.475L340,292.775L343.9,296.175C345.867,298.208 346.8,301.692 346.7,306.625C346.633,311.425 345.75,314.475 344.05,315.775L343.35,316.125C343.117,316.092 342.933,315.842 342.8,315.375C342.433,313.908 341.55,312.075 340.15,309.875C338.75,307.608 337.433,305.975 336.2,304.975C335.567,304.442 333.65,303.392 330.45,301.825L325.9,299.675C324.267,298.775 323.633,296.608 324,293.175C324.367,289.642 325.733,287.558 328.1,286.925" style="fill:rgb(13,19,26);fill-rule:nonzero;"/>
        <path d="M325.5,298.125C325.933,298.125 326.483,298.442 327.15,299.075C327.85,299.708 328.067,300.008 327.8,299.975C319.467,299.775 314.417,299.842 312.65,300.175C312.417,300.242 312.55,299.942 313.05,299.275C313.517,298.642 313.9,298.325 314.2,298.325L325.5,298.125" style="fill:rgb(13,19,26);fill-rule:nonzero;"/>
        <path d="M189.7,167.825C183.5,174.058 180.317,179.508 180.15,184.175C180.05,187.408 181.15,189.992 183.45,191.925C185.25,193.425 187.617,194.458 190.55,195.025C193.183,195.525 195.683,195.542 198.05,195.075C203.017,194.075 208.133,192.558 213.4,190.525C216.3,189.358 220.4,187.525 225.7,185.025C229.8,183.058 232.783,181.708 234.65,180.975C237.683,179.808 240.3,179.158 242.5,179.025L246.7,179.375L248.6,179.625L251.05,178.925C251.183,178.858 251.383,179.192 251.65,179.925L251.9,181.125L248.85,182.175L246.45,181.875C245.05,181.408 243.783,181.208 242.65,181.275C238.683,181.542 233.283,183.325 226.45,186.625C221.117,189.325 216.867,191.358 213.7,192.725C208.033,195.192 202.917,196.758 198.35,197.425L190.05,196.875C186.817,196.108 184.2,194.875 182.2,193.175C179,190.475 177.467,187.475 177.6,184.175C177.767,179.242 180.883,173.658 186.95,167.425C192.983,161.258 199.467,156.908 206.4,154.375L207.95,154.775L208.95,155.375C202.35,157.475 195.933,161.625 189.7,167.825" style="fill:rgb(13,19,26);fill-rule:nonzero;"/>
        <path d="M180.4,189.275C180.533,189.142 180.733,189.325 181,189.825L181.35,190.625C180.783,191.358 180.567,192.358 180.7,193.625C180.833,194.925 181.3,195.908 182.1,196.575C182.933,197.275 184.383,197.575 186.45,197.475C188.517,197.408 190.5,196.975 192.4,196.175L194.6,196.325C195.867,196.492 196.4,196.625 196.2,196.725C194,197.892 191.233,198.658 187.9,199.025C184.367,199.425 182,199.108 180.8,198.075C179.7,197.142 179.083,195.742 178.95,193.875C178.817,191.942 179.3,190.408 180.4,189.275" style="fill:rgb(13,19,26);fill-rule:nonzero;"/>
        <path d="M179.9,194.425C180.067,194.292 180.35,194.558 180.75,195.225C181.117,195.858 181.217,196.242 181.05,196.375C179.883,197.275 179.167,198.658 178.9,200.525C178.8,201.225 178.783,202.525 178.85,204.425C178.983,210.625 177.183,219.058 173.45,229.725C169.917,239.725 166.667,246.475 163.7,249.975C162.933,250.875 162.333,251.775 161.9,252.675C161.4,253.775 161.25,254.642 161.45,255.275C161.65,255.975 162.267,256.442 163.3,256.675L170.15,259.175C173.483,260.442 175.35,261.058 175.75,261.025C176.883,260.992 177.833,260.525 178.6,259.625C179.833,258.258 180.45,256.008 180.45,252.875L180.15,246.875C180.15,240.008 181.833,232.292 185.2,223.725C187.1,218.925 189.817,213.342 193.35,206.975L195,203.725C194.5,200.892 193.333,198.542 191.5,196.675C191.4,196.575 191.75,196.442 192.55,196.275L193.9,196.225L196,199.175C196.633,200.342 197.083,201.742 197.35,203.375C197.45,203.908 197.283,204.575 196.85,205.375L194.9,208.725C191.067,215.658 188.267,221.508 186.5,226.275C183.133,235.175 181.767,243.175 182.4,250.275C182.933,255.942 182.433,259.642 180.9,261.375C180.133,262.275 178.317,262.792 175.45,262.925C174.717,262.925 173,262.275 170.3,260.975C167.367,259.508 164.8,258.625 162.6,258.325C161.767,258.225 161.017,257.958 160.35,257.525C159.65,257.058 159.217,256.525 159.05,255.925C158.717,254.825 158.95,253.442 159.75,251.775C160.317,250.508 160.983,249.458 161.75,248.625C165.05,245.025 168.35,238.475 171.65,228.975C175.05,219.108 176.683,210.858 176.55,204.225C176.383,202.125 176.4,200.542 176.6,199.475C177,197.308 178.1,195.625 179.9,194.425" style="fill:rgb(13,19,26);fill-rule:nonzero;"/>
        <path d="M158.2,279.775C154,280.508 150.517,281.408 147.75,282.475C147.55,282.542 147.783,282.192 148.45,281.425L149.9,280.125C153.9,278.725 159.683,277.458 167.25,276.325L175.45,274.825C177.85,274.158 179.383,273.258 180.05,272.125C180.65,271.125 180.767,269.925 180.4,268.525C180.167,267.692 179.6,266.442 178.7,264.775L177.1,261.125C177.067,260.992 177.3,260.842 177.8,260.675C178.3,260.542 178.567,260.542 178.6,260.675C178.7,261.108 179.25,262.242 180.25,264.075C181.317,266.108 182.017,267.742 182.35,268.975C182.917,271.042 182.8,272.725 182,274.025C181.167,275.392 179.4,276.375 176.7,276.975L167.75,278.275L158.2,279.775" style="fill:rgb(13,19,26);fill-rule:nonzero;"/>
        <path d="M117.4,276.025L116.2,276.275C115.967,276.108 115.983,275.708 116.25,275.075L118.35,270.175C119.15,268.508 119.933,267.208 120.7,266.275L121.55,268.475C120.65,269.742 119.85,271.158 119.15,272.725C120.15,272.325 121.3,272.025 122.6,271.825L123.15,273.575C121.683,273.842 119.767,274.658 117.4,276.025" style="fill:rgb(13,19,26);fill-rule:nonzero;"/>
        <path d="M137.8,273.725C137.967,273.825 137.7,273.992 137,274.225L135.6,274.425C134.467,273.958 132.517,273.592 129.75,273.325L129.65,271.475C132.717,271.708 135.433,272.458 137.8,273.725" style="fill:rgb(13,19,26);fill-rule:nonzero;"/>
        <path d="M162.05,257.125C155.483,260.525 150.283,262.708 146.45,263.675L133.1,264.175L129.65,263.975L129.8,261.425L131.55,261.675L133.3,262.075C138.7,262.775 143.167,262.692 146.7,261.825C149.933,261.025 154.5,258.958 160.4,255.625L161.35,256.325L162.05,257.125" style="fill:rgb(13,19,26);fill-rule:nonzero;"/>
        <path d="M149.4,261.875L149.8,261.475L150.35,261.275C151.117,262.342 153.283,263.308 156.85,264.175L162.75,265.275C165.15,265.675 166.867,266.825 167.9,268.725C169.4,271.325 169.717,274.008 168.85,276.775C168.783,276.942 168.383,277.108 167.65,277.275L166.6,277.225C167.733,274.292 167.65,271.725 166.35,269.525C165.45,267.825 164.167,266.842 162.5,266.575L156.4,265.425C152.533,264.492 150.2,263.308 149.4,261.875" style="fill:rgb(13,19,26);fill-rule:nonzero;"/>
        <path d="M143.65,263.225C143.617,263.125 143.817,263.042 144.25,262.975L145,263.075C145.433,264.408 145.567,265.825 145.4,267.325C145.267,268.792 144.9,270.092 144.3,271.225C144.133,271.558 143.583,271.808 142.65,271.975C141.717,272.175 141.35,272.175 141.55,271.975C142.383,271.075 143.067,269.792 143.6,268.125C144.167,266.192 144.183,264.558 143.65,263.225" style="fill:rgb(13,19,26);fill-rule:nonzero;"/>
        <path d="M149.4,271.375C149.067,270.975 148.783,270.792 148.55,270.825C147.25,270.858 143.483,272.192 137.25,274.825L136,275.325C135.167,275.658 134.283,276.292 133.35,277.225C132.283,278.258 131.35,279.442 130.55,280.775L130.55,276.875C131.517,275.708 134.05,274.225 138.15,272.425C142.383,270.558 145.817,269.492 148.45,269.225C149.15,269.192 149.8,269.492 150.4,270.125C150.967,270.758 151.417,271.642 151.75,272.775C152.283,274.508 152.317,276.242 151.85,277.975C151.35,279.842 150.4,281.175 149,281.975L145.2,283.225C141.133,284.192 138.133,285.225 136.2,286.325C133.533,287.858 130.833,290.408 128.1,293.975C127.8,294.375 127.55,294.492 127.35,294.325L126.9,293.225C126.3,291.192 126.183,288.875 126.55,286.275C126.883,283.908 127.5,281.858 128.4,280.125L129.2,281.025L130.05,281.725C128.783,284.025 128.15,286.408 128.15,288.875L128.3,290.775C130.767,287.908 133.867,285.658 137.6,284.025C139.733,283.092 142.433,282.242 145.7,281.475L148.45,280.675C149.883,279.842 150.6,278.242 150.6,275.875C150.6,274.842 150.483,273.958 150.25,273.225L149.4,271.375" style="fill:rgb(13,19,26);fill-rule:nonzero;"/>
        <path d="M220.4,148.275L218.75,148.525L212.1,149.175C208.567,149.242 204.733,148.808 200.6,147.875C196.967,147.042 193.1,145.192 189,142.325C185.433,139.792 182.417,137.008 179.95,133.975C178.817,132.575 177.667,131.842 176.5,131.775C174.467,131.742 171.5,133.792 167.6,137.925C166.1,139.525 164.283,140.992 162.15,142.325L156.2,145.575C152.033,147.708 148.783,149.608 146.45,151.275C142.55,154.042 138.867,157.575 135.4,161.875C131.733,166.442 127.95,173.525 124.05,183.125C119.65,193.892 117.083,203.375 116.35,211.575C115.983,216.075 115.8,220.325 115.8,224.325C115.8,234.758 116.8,244.892 118.8,254.725C120.6,263.525 122.7,269.975 125.1,274.075C127.4,278.008 128.8,280.008 129.3,280.075C129.867,280.175 129.9,278.192 129.4,274.125C128.867,269.425 128.6,263.892 128.6,257.525C128.6,239.058 131.717,222.425 137.95,207.625C140.55,201.458 145.283,194.542 152.15,186.875C157.85,180.508 162.617,176.025 166.45,173.425L169.25,171.725L170.8,170.625C171.067,170.292 171.2,169.792 171.2,169.125L171,166.425L170.6,163.325C170.2,160.458 170,158.308 170,156.875L170.05,155.175C170.45,151.342 172.167,147.808 175.2,144.575C175.567,144.175 176,143.992 176.5,144.025C177.267,144.025 178.183,144.492 179.25,145.425L182.8,149.225L184.6,151.275C185.4,152.108 186.25,152.592 187.15,152.725L189.8,152.575L192.05,152.275C196.55,152.075 200.95,152.358 205.25,153.125C207.85,153.558 211.033,154.325 214.8,155.425L219.05,156.525L221.9,156.575C223,156.242 223.817,155.725 224.35,155.025C224.85,154.292 225.017,153.425 224.85,152.425C224.683,151.325 224.167,150.358 223.3,149.525C222.433,148.658 221.467,148.242 220.4,148.275M212.1,147.625L218.5,146.975L220.45,146.525C221.517,146.325 222.667,146.758 223.9,147.825C225.267,148.958 226.1,150.392 226.4,152.125C226.6,153.458 226.45,154.658 225.95,155.725C225.283,157.092 224.15,158.008 222.55,158.475C221.683,158.742 220.5,158.725 219,158.425L214.25,157.075C211.417,156.175 207.983,155.458 203.95,154.925C199.317,154.325 195.383,154.225 192.15,154.625L187.2,155.525C185.833,155.592 184.567,154.875 183.4,153.375C179.2,147.842 176.867,145.342 176.4,145.875C174.933,147.475 173.833,148.992 173.1,150.425C172.3,151.992 171.817,153.625 171.65,155.325C171.55,156.325 171.833,158.525 172.5,161.925L173.9,168.625C174.067,169.725 174.017,170.625 173.75,171.325C173.45,172.058 172.867,172.658 172,173.125C167.4,175.525 161.733,180.258 155,187.325C147.567,195.092 142.533,202.108 139.9,208.375C135.9,217.908 133.133,228.525 131.6,240.225C130.033,251.958 129.917,263.208 131.25,273.975C131.817,278.808 131.617,281.608 130.65,282.375C129.45,283.342 127.05,280.842 123.45,274.875C120.383,269.675 117.867,261.408 115.9,250.075C113.6,237.008 113.017,224.192 114.15,211.625C114.883,203.158 117.3,193.558 121.4,182.825C125.3,172.625 129.2,165.108 133.1,160.275C136.6,155.942 140.417,152.375 144.55,149.575C146.517,148.242 149.867,146.392 154.6,144.025L160.95,140.875C163.217,139.642 165.05,138.292 166.45,136.825L171.8,131.525C173.633,129.992 175.217,129.258 176.55,129.325C178.183,129.392 179.783,130.392 181.35,132.325C183.883,135.425 186.75,138.208 189.95,140.675C193.883,143.675 197.55,145.558 200.95,146.325C204.95,147.225 208.667,147.658 212.1,147.625" style="fill:rgb(13,19,26);fill-rule:nonzero;"/>
        <path d="M167.3,144.975C167.633,144.808 167.95,144.808 168.25,144.975C168.517,145.175 168.667,146.208 168.7,148.075L168.65,152.175C168.617,153.608 168.367,154.775 167.9,155.675C167.4,156.575 167.183,156.292 167.25,154.825C167.417,152.058 167.367,149.625 167.1,147.525L164.1,149.125C159.5,151.525 156.083,153.408 153.85,154.775C150.283,156.942 147.8,158.808 146.4,160.375C129.567,179.608 121.15,202.358 121.15,228.625C121.15,234.325 121.55,240.225 122.35,246.325L122.35,246.425C122.35,249.858 122.15,250.958 121.75,249.725C121.417,248.658 120.983,246.075 120.45,241.975C118.45,225.975 119.65,210.792 124.05,196.425C128.25,182.592 135.233,170.125 145,159.025C146.367,157.458 150.5,154.642 157.4,150.575L167.3,144.975" style="fill:rgb(13,19,26);fill-rule:nonzero;"/>
        <path d="M221.5,147.325C222.333,146.058 223.7,145.558 225.6,145.825C227.267,146.125 228.233,147.075 228.5,148.675C228.667,149.508 228.533,150.225 228.1,150.825C227.7,151.392 227.5,151.142 227.5,150.075C227.5,148.475 226.817,147.558 225.45,147.325C224.083,147.092 223.133,147.508 222.6,148.575C222.5,148.775 222.267,148.642 221.9,148.175C221.533,147.708 221.4,147.425 221.5,147.325" style="fill:rgb(13,19,26);fill-rule:nonzero;"/>
        <path d="M121.55,58.925C121.383,58.192 121.55,56.308 122.05,53.275C122.083,53.108 122.383,53.225 122.95,53.625L123.8,54.475C123.533,56.142 123.583,57.425 123.95,58.325C124.417,59.458 125.567,60.508 127.4,61.475L129.05,62.275C131.083,63.275 132.667,64.258 133.8,65.225C135.633,66.792 137.567,69.158 139.6,72.325C140.1,73.058 140.417,74.758 140.55,77.425C137.85,72.725 135.633,69.558 133.9,67.925C132.867,66.925 130.85,65.692 127.85,64.225L126.1,63.375C123.467,61.975 121.95,60.492 121.55,58.925" style="fill:rgb(13,19,26);fill-rule:nonzero;"/>
        <path d="M132.9,48.375C133.433,48.175 133.983,48.242 134.55,48.575C135.15,48.908 135.6,49.425 135.9,50.125C136.833,52.258 137.667,53.792 138.4,54.725C138.7,55.125 138.833,55.658 138.8,56.325C138.733,57.025 138.567,57.242 138.3,56.975C136.8,55.475 135.533,53.475 134.5,50.975L133.65,50.275L133.1,50.175C132.767,50.242 132.567,49.958 132.5,49.325C132.433,48.692 132.567,48.375 132.9,48.375" style="fill:rgb(13,19,26);fill-rule:nonzero;"/>
        <path d="M131.45,47.925C131.15,46.792 130.567,45.742 129.7,44.775C125.667,40.408 122.7,34.975 120.8,28.475C119.367,23.708 118.383,17.608 117.85,10.175C117.75,8.442 117.233,7.208 116.3,6.475C115.467,5.842 114.2,5.592 112.5,5.725L107.6,6.525L106.25,6.825L99.85,7.625L93.1,7.825L79.55,8.625C73.883,9.325 68.233,10.642 62.6,12.575C50.2,16.775 38.733,24.492 28.2,35.725C14.433,50.425 6.067,68.125 3.1,88.825C2.567,92.825 2.417,94.925 2.65,95.125C2.95,95.392 4.067,93.725 6,90.125C10,82.658 15.433,75.042 22.3,67.275C31.467,56.942 40.85,49.358 50.45,44.525C57.483,40.992 64.85,38.675 72.55,37.575C80.25,36.475 88.917,36.492 98.55,37.625C98.883,37.658 99.767,36.292 101.2,33.525C102.167,31.625 103.367,29.608 104.8,27.475C106.6,24.775 108.267,22.742 109.8,21.375C110.733,20.542 111.45,20.142 111.95,20.175C112.417,20.208 112.217,20.642 111.35,21.475L109.75,23.275C112.717,26.042 115.467,30.508 118,36.675C119.867,41.275 121.15,45.392 121.85,49.025C122.25,51.392 123.217,53.025 124.75,53.925L129.4,54.175C130.433,53.842 131.15,52.892 131.55,51.325C131.817,50.225 131.783,49.092 131.45,47.925M131.4,43.475C132.5,44.675 133.167,45.892 133.4,47.125C133.667,48.358 133.567,49.892 133.1,51.725C132.867,52.692 132.45,53.525 131.85,54.225C131.283,54.925 130.633,55.408 129.9,55.675L126.35,56.125C125.117,56.025 124.067,55.725 123.2,55.225C121.233,54.058 120,52.092 119.5,49.325C118.667,45.025 117.417,40.758 115.75,36.525C113.45,30.725 110.967,26.908 108.3,25.075C107.133,26.808 106,28.758 104.9,30.925L102.55,35.725L100.45,39.375C99.783,40.208 99.083,40.575 98.35,40.475C88.65,39.342 80.217,39.208 73.05,40.075C65.45,41.008 58.3,43.158 51.6,46.525C42.133,51.258 32.85,58.692 23.75,68.825C17.05,76.292 11.6,83.725 7.4,91.125C4.3,96.658 2.3,99.242 1.4,98.875C0.467,98.475 0.483,94.875 1.45,88.075C4.517,66.542 12.967,48.375 26.8,33.575C37.2,22.408 48.833,14.625 61.7,10.225C67.333,8.292 73.15,7.058 79.15,6.525L93.1,5.975L105.95,4.725L111.1,3.625C114.033,3.258 116.2,3.592 117.6,4.625C119,5.692 119.75,7.408 119.85,9.775C120.15,16.842 120.917,22.558 122.15,26.925C123.95,33.225 127.033,38.742 131.4,43.475" style="fill:rgb(13,19,26);fill-rule:nonzero;"/>
        <path d="M93.2,11.625L109.05,12.075C109.65,12.708 109.733,13.608 109.3,14.775L107.6,18.225C106.867,19.525 106.183,20.258 105.55,20.425C104.95,20.625 105,20.058 105.7,18.725L107.15,15.875C107.517,15.008 107.6,14.425 107.4,14.125L94.85,13.775L78.25,14.125C76.217,14.192 72.75,15.108 67.85,16.875C61.817,19.075 55.883,21.875 50.05,25.275C33.383,34.942 21.983,46.892 15.85,61.125C14.617,64.025 13.917,65.092 13.75,64.325C13.55,63.558 14.1,61.758 15.4,58.925C21.767,44.792 33.283,32.925 49.95,23.325C55.783,19.958 61.717,17.192 67.75,15.025C72.65,13.258 76.133,12.342 78.2,12.275L93.2,11.625" style="fill:rgb(13,19,26);fill-rule:nonzero;"/>
        <path d="M131.4,52.825C131.367,52.625 131.567,52.275 132,51.775C132.467,51.242 132.717,51.075 132.75,51.275C133.283,53.442 132.983,55.308 131.85,56.875C131.183,57.808 130.167,58.458 128.8,58.825C127.567,59.158 126.617,59.075 125.95,58.575C125.317,58.075 125.917,57.742 127.75,57.575C128.917,57.475 129.85,56.942 130.55,55.975C131.183,55.108 131.467,54.058 131.4,52.825" style="fill:rgb(13,19,26);fill-rule:nonzero;"/>
        <path d="M155.65,76.275C155.717,76.075 155.867,76.308 156.1,76.975L156.25,78.425C155.25,81.825 154.883,85.325 155.15,88.925C155.217,90.158 156.2,92.392 158.1,95.625C158.333,95.992 158.467,96.658 158.5,97.625C158.5,98.592 158.417,98.975 158.25,98.775C155.217,94.542 153.633,91.408 153.5,89.375C153.2,85.575 153.917,81.208 155.65,76.275" style="fill:rgb(13,19,26);fill-rule:nonzero;"/>
        <path d="M215.7,76.575C215.667,76.375 215.933,75.925 216.5,75.225C217.067,74.525 217.383,74.275 217.45,74.475C217.783,75.242 217.817,78.258 217.55,83.525C217.317,88.858 216.967,91.825 216.5,92.425C215.033,94.458 212.217,96.525 208.05,98.625C204.483,100.425 201.017,101.775 197.65,102.675C197.45,102.708 197.467,102.358 197.7,101.625C197.967,100.892 198.183,100.492 198.35,100.425C201.883,99.392 205.183,98.092 208.25,96.525C211.65,94.792 213.933,93.142 215.1,91.575C215.333,91.008 215.533,88.775 215.7,84.875C215.833,81.042 215.833,78.275 215.7,76.575" style="fill:rgb(13,19,26);fill-rule:nonzero;"/>
        <path d="M207.2,89.275C207.2,88.542 207.417,88.175 207.85,88.175C208.283,88.175 208.5,88.542 208.5,89.275C208.5,90.008 208.283,90.375 207.85,90.375L207.4,90.075L207.2,89.275" style="fill:white;fill-rule:nonzero;"/>
    </g>
</svg>
