<?xml version="1.0" standalone="no"?>
<!DOCTYPE svg PUBLIC "-//W3C//DTD SVG 20010904//EN"
 "http://www.w3.org/TR/2001/REC-SVG-20010904/DTD/svg10.dtd">
<svg version="1.0" xmlns="http://www.w3.org/2000/svg"
 width="525.000000pt" height="525.000000pt" viewBox="0 0 525.000000 525.000000"
 preserveAspectRatio="xMidYMid meet">
<metadata>
Created by potrace 1.14, written by Peter Selinger 2001-2017
</metadata>
<g transform="translate(0.000000,525.000000) scale(0.100000,-0.100000)"
fill="#000000" stroke="none">
<path d="M2411 5240 c-635 -62 -1188 -327 -1623 -778 -375 -390 -606 -860
-690 -1407 -28 -185 -30 -521 -4 -700 81 -559 315 -1043 694 -1437 216 -223
436 -385 707 -518 264 -130 478 -197 766 -241 204 -31 524 -31 728 0 288 44
502 111 766 241 761 374 1277 1094 1401 1955 24 165 24 505 0 670 -124 861
-640 1581 -1401 1955 -264 130 -481 198 -761 240 -161 24 -443 33 -583 20z
m444 -1954 c230 -75 404 -248 482 -481 24 -72 27 -95 27 -220 0 -125 -3 -148
-27 -220 -78 -232 -250 -404 -482 -482 -72 -24 -95 -27 -220 -27 -125 0 -148
3 -220 27 -232 78 -404 250 -482 482 -24 72 -27 95 -27 220 0 125 3 148 27
220 86 257 287 440 552 501 95 22 271 12 370 -20z m-1175 -810 c0 -50 44 -213
77 -287 94 -206 276 -388 482 -482 126 -57 240 -80 396 -80 156 0 270 23 396
80 206 94 388 276 482 482 33 74 77 237 77 287 l0 34 685 0 685 0 0 -22 c-1
-42 -29 -223 -50 -318 -55 -249 -189 -562 -332 -775 -386 -576 -975 -942
-1668 -1036 -122 -17 -448 -17 -570 0 -694 95 -1282 460 -1668 1036 -143 213
-277 526 -332 775 -21 95 -49 276 -50 318 l0 22 695 0 695 0 0 -34z"/>
<path d="M2520 3104 c-148 -32 -290 -141 -358 -274 -34 -68 -62 -178 -62 -245
0 -67 28 -177 62 -245 44 -85 147 -188 230 -229 65 -32 177 -61 238 -61 61 0
173 29 238 61 83 41 186 144 230 229 34 68 62 178 62 245 0 133 -62 276 -162
376 -77 77 -158 122 -263 144 -85 18 -130 18 -215 -1z m248 -234 c230 -116
236 -440 10 -566 -48 -26 -62 -29 -148 -29 -86 0 -100 3 -148 29 -182 101
-222 340 -83 498 18 21 60 51 93 68 52 26 72 30 138 30 66 0 86 -4 138 -30z"/>
</g>
</svg>
